#N canvas 0 0 1440 837 12;
#X declare -path monzlib;
#X floatatom 194 1092 5 0 0 0 - - - 0;
#X obj 51 1863 *~ 0.8;
#X obj 46 1891 dac~;
#X obj 237 980 bng 15 250 50 0 empty empty empty 17 7 0 10 #fcfcfc
#000000 #000000;
#X obj 162 1109 bng 15 250 50 0 empty empty empty 17 7 0 10 #fcfcfc
#000000 #000000;
#X msg 370 1005 vox;
#X msg 382 1032 more;
#X obj 198 1127 playdir~;
#N canvas 0 0 450 300 getSoundFolderPath 0;
#X obj 76 168 pdcontrol;
#X msg 76 140 dir;
#X obj 24 13 inlet;
#X obj 24 194 pack s s;
#X obj 24 98 symbol;
#X obj 35 127 b;
#X msg 24 224 \$2/sounds/\$1;
#X obj 23 251 outlet;
#X connect 0 0 3 1;
#X connect 1 0 0 0;
#X connect 2 0 4 0;
#X connect 3 0 6 0;
#X connect 4 0 3 0;
#X connect 4 0 5 0;
#X connect 5 0 1 0;
#X connect 6 0 7 0;
#X restore 244 1077 pd getSoundFolderPath;
#X obj 26 20 declare -path monzlib;
#X msg 303 917 misc3;
#X msg 323 947 misc;
#X msg 346 977 misc2;
#N canvas 0 0 719 837 transport 0;
#X obj 282 328 route stop start bar dur;
#X msg 173 195 stop;
#X obj 203 300 else/pattern;
#X msg 384 216 tempo 140;
#X obj 321 356 bng 15 250 50 0 empty empty empty 17 7 0 10 #fcfcfc
#000000 #000000;
#X obj 85 230 tgl 15 0 empty empty empty 17 7 0 10 #fcfcfc #000000
#000000 0 1;
#X msg 196 32 1/4 1/4 1/4 1/4;
#X obj 202 325 bng 15 250 50 0 empty empty empty 17 7 0 10 #fcfcfc
#000000 #000000;
#X msg 224 67 1/4 1/4 1/4 1/4 1/4 1/4 1/4 1/4;
#X msg 375 283 swing 0;
#X msg 373 150 tempo 174;
#X msg 242 105 1/4 1/4 1/4 1/4 1/4 1/4 1/4 1/4 1/4 1/4 1/4 1/4 1/4
1/4 1/4 1/4, f 64;
#X msg 379 182 tempo 170;
#X floatatom 405 353 5 0 0 0 - - - 0;
#X obj 405 377 / 2;
#X floatatom 405 407 5 0 0 0 - - - 0;
#X obj 375 431 metro;
#X obj 373 456 bng 15 250 50 0 empty empty empty 17 7 0 10 #fcfcfc
#000000 #000000;
#X obj 446 378 / 4;
#X floatatom 447 406 5 0 0 0 - - - 0;
#X obj 419 431 metro;
#X obj 417 456 bng 15 250 50 0 empty empty empty 17 7 0 10 #fcfcfc
#000000 #000000;
#X msg 438 246 tempo 14;
#X msg 566 210 tempo \$1;
#X floatatom 568 183 5 0 0 0 - - - 0;
#X obj 398 22 loadbang;
#X obj 65 19 inlet;
#X obj 234 555 outlet;
#X obj 327 557 outlet;
#X obj 382 556 outlet;
#X obj 534 22 inlet;
#X obj 281 557 outlet;
#X connect 0 1 4 0;
#X connect 0 3 13 0;
#X connect 1 0 2 0;
#X connect 2 0 7 0;
#X connect 2 1 0 0;
#X connect 3 0 2 0;
#X connect 4 0 27 0;
#X connect 5 0 2 0;
#X connect 5 0 16 0;
#X connect 5 0 20 0;
#X connect 6 0 2 1;
#X connect 7 0 31 0;
#X connect 8 0 2 1;
#X connect 9 0 2 0;
#X connect 10 0 2 0;
#X connect 11 0 2 1;
#X connect 12 0 2 0;
#X connect 13 0 14 0;
#X connect 13 0 18 0;
#X connect 14 0 15 0;
#X connect 15 0 16 1;
#X connect 16 0 17 0;
#X connect 17 0 28 0;
#X connect 18 0 19 0;
#X connect 19 0 20 1;
#X connect 20 0 21 0;
#X connect 21 0 29 0;
#X connect 22 0 2 0;
#X connect 23 0 2 0;
#X connect 24 0 23 0;
#X connect 25 0 11 0;
#X connect 26 0 5 0;
#X connect 30 0 24 0;
#X restore 26 250 pd transport;
#X obj 26 229 tgl 15 0 empty empty empty 17 7 0 10 #fcfcfc #000000
#000000 0 1;
#X obj 107 273 bng 15 250 50 0 empty empty empty 17 7 0 10 #fcfcfc
#000000 #000000;
#X obj 80 273 bng 15 250 50 0 empty empty empty 17 7 0 10 #fcfcfc #000000
#000000;
#X obj 53 273 bng 15 250 50 0 empty empty empty 17 7 0 10 #fcfcfc #000000
#000000;
#X obj 25 273 bng 15 250 50 0 empty empty empty 17 7 0 10 #fcfcfc #000000
#000000;
#X floatatom 108 226 5 0 0 0 - - - 0;
#X msg 130 140 140;
#X obj 130 112 loadbang;
#X obj 108 294 s pulse;
#X obj 64 1773 catch~ main;
#X floatatom 144 408 5 0 0 0 - - - 0;
#X floatatom 199 364 5 0 0 0 - - - 0;
#X floatatom 259 323 5 0 0 0 - - - 0;
#X obj 101 463 bng 15 250 50 0 empty empty empty 17 7 0 10 #fcfcfc
#000000 #000000;
#X obj 101 484 s globRandom;
#X obj 258 348 s globRandMax;
#X obj 198 389 s globLikeliness;
#X obj 141 432 s globSeqSize;
#X obj 194 1155 throw~ main;
#X msg 249 138 170;
#N canvas 0 0 1438 837 drums 0;
#X obj 298 395 throw~ main;
#X msg 400 143 hihat;
#X obj 399 168 randomSequence;
#X obj 374 111 randomSequence;
#X msg 375 86 kicks;
#X obj 501 167 else/display;
#X obj 478 109 else/display;
#X obj 403 228 randomSequence;
#X obj 505 227 else/display;
#X msg 404 203 snares;
#X obj 407 294 randomSequence;
#X obj 509 293 else/display;
#X msg 408 269 rimshots;
#X obj 407 357 randomSequence;
#X obj 509 356 else/display;
#X msg 408 332 perc;
#X obj 540 264 b;
#X obj 509 83 bng 15 250 50 0 empty empty empty 17 7 0 10 #fcfcfc #000000
#000000;
#X obj 393 47 randomSequence;
#X obj 497 45 else/display;
#X msg 394 22 cymbals;
#X obj 53 61 inlet;
#X connect 1 0 2 0;
#X connect 2 0 0 0;
#X connect 2 1 5 0;
#X connect 3 0 0 0;
#X connect 3 1 6 0;
#X connect 4 0 3 0;
#X connect 7 0 0 0;
#X connect 7 1 8 0;
#X connect 9 0 7 0;
#X connect 10 0 0 0;
#X connect 10 1 11 0;
#X connect 12 0 10 0;
#X connect 13 0 0 0;
#X connect 13 1 14 0;
#X connect 15 0 13 0;
#X connect 16 0 4 0;
#X connect 16 0 1 0;
#X connect 16 0 9 0;
#X connect 16 0 12 0;
#X connect 16 0 15 0;
#X connect 16 0 20 0;
#X connect 17 0 16 0;
#X connect 18 0 0 0;
#X connect 18 1 19 0;
#X connect 20 0 18 0;
#X connect 21 0 17 0;
#X restore 34 640 pd drums;
#X obj 36 614 spigot 1;
#X obj 89 594 tgl 15 0 empty empty empty 17 7 0 10 #fcfcfc #000000
#000000 0 1;
#N canvas 0 0 1438 837 play8dirs 0;
#X obj 90 751 *~ 0.8;
#X obj 164 275 playdir~;
#X floatatom 116 168 5 0 0 0 - - - 0;
#X obj 164 300 *~ 0.8;
#X obj 230 248 bng 15 250 50 0 empty empty empty 17 7 0 10 #fcfcfc
#000000 #000000;
#X obj 163 222 bng 15 250 50 0 empty empty empty 17 7 0 10 #fcfcfc
#000000 #000000;
#X msg 228 169 140_loops;
#X obj 396 280 playdir~;
#X floatatom 348 173 5 0 0 0 - - - 0;
#X obj 396 305 *~ 0.8;
#X obj 462 253 bng 15 250 50 0 empty empty empty 17 7 0 10 #fcfcfc
#000000 #000000;
#X obj 395 227 bng 15 250 50 0 empty empty empty 17 7 0 10 #fcfcfc
#000000 #000000;
#X msg 460 174 140_loops;
#X obj 315 69 bng 15 250 50 0 empty empty empty 17 7 0 10 #fcfcfc #000000
#000000;
#X obj 624 273 playdir~;
#X floatatom 576 166 5 0 0 0 - - - 0;
#X obj 624 298 *~ 0.8;
#X obj 690 246 bng 15 250 50 0 empty empty empty 17 7 0 10 #fcfcfc
#000000 #000000;
#X obj 623 220 bng 15 250 50 0 empty empty empty 17 7 0 10 #fcfcfc
#000000 #000000;
#X msg 688 167 140_loops;
#X obj 824 259 playdir~;
#X floatatom 776 152 5 0 0 0 - - - 0;
#X obj 824 284 *~ 0.8;
#X obj 890 232 bng 15 250 50 0 empty empty empty 17 7 0 10 #fcfcfc
#000000 #000000;
#X obj 823 206 bng 15 250 50 0 empty empty empty 17 7 0 10 #fcfcfc
#000000 #000000;
#X msg 888 153 140_loops;
#X obj 173 63 bng 15 250 50 0 empty empty empty 17 7 0 10 #fcfcfc #000000
#000000;
#X obj 213 616 playdir~;
#X floatatom 165 509 5 0 0 0 - - - 0;
#X obj 213 641 *~ 0.8;
#X obj 279 589 bng 15 250 50 0 empty empty empty 17 7 0 10 #fcfcfc
#000000 #000000;
#X obj 212 563 bng 15 250 50 0 empty empty empty 17 7 0 10 #fcfcfc
#000000 #000000;
#X obj 445 621 playdir~;
#X floatatom 397 514 5 0 0 0 - - - 0;
#X obj 445 646 *~ 0.8;
#X obj 511 594 bng 15 250 50 0 empty empty empty 17 7 0 10 #fcfcfc
#000000 #000000;
#X obj 444 568 bng 15 250 50 0 empty empty empty 17 7 0 10 #fcfcfc
#000000 #000000;
#X obj 673 614 playdir~;
#X floatatom 625 507 5 0 0 0 - - - 0;
#X obj 673 639 *~ 0.8;
#X obj 739 587 bng 15 250 50 0 empty empty empty 17 7 0 10 #fcfcfc
#000000 #000000;
#X obj 672 561 bng 15 250 50 0 empty empty empty 17 7 0 10 #fcfcfc
#000000 #000000;
#X obj 873 600 playdir~;
#X floatatom 825 493 5 0 0 0 - - - 0;
#X obj 873 625 *~ 0.8;
#X obj 939 573 bng 15 250 50 0 empty empty empty 17 7 0 10 #fcfcfc
#000000 #000000;
#X obj 872 547 bng 15 250 50 0 empty empty empty 17 7 0 10 #fcfcfc
#000000 #000000;
#X obj 109 65 bng 15 250 50 0 empty empty empty 17 7 0 10 #fcfcfc #000000
#000000;
#X msg 277 510 140_loops;
#X msg 509 515 140_loops;
#X msg 737 508 140_loops;
#X msg 937 494 140_loops;
#X obj 116 137 random 2000;
#X obj 165 478 random 2000;
#X obj 395 483 random 2000;
#X obj 623 476 random 2000;
#X obj 823 462 random 2000;
#X obj 774 121 random 2000;
#X obj 574 135 random 2000;
#X obj 346 142 random 2000;
#X obj 111 31 inlet;
#X obj 174 31 inlet;
#X obj 319 34 inlet;
#X obj 90 776 outlet~;
#X obj 404 36 inlet;
#X connect 0 0 63 0;
#X connect 1 0 3 0;
#X connect 2 0 1 0;
#X connect 3 0 0 0;
#X connect 4 0 1 2;
#X connect 5 0 1 0;
#X connect 6 0 1 1;
#X connect 7 0 9 0;
#X connect 8 0 7 0;
#X connect 9 0 0 0;
#X connect 10 0 7 2;
#X connect 11 0 7 0;
#X connect 12 0 7 1;
#X connect 13 0 52 0;
#X connect 13 0 53 0;
#X connect 13 0 54 0;
#X connect 13 0 55 0;
#X connect 13 0 56 0;
#X connect 13 0 57 0;
#X connect 13 0 58 0;
#X connect 13 0 59 0;
#X connect 14 0 16 0;
#X connect 15 0 14 0;
#X connect 16 0 0 0;
#X connect 17 0 14 2;
#X connect 18 0 14 0;
#X connect 19 0 14 1;
#X connect 20 0 22 0;
#X connect 21 0 20 0;
#X connect 22 0 0 0;
#X connect 23 0 20 2;
#X connect 24 0 20 0;
#X connect 25 0 20 1;
#X connect 26 0 4 0;
#X connect 26 0 10 0;
#X connect 26 0 17 0;
#X connect 26 0 23 0;
#X connect 26 0 30 0;
#X connect 26 0 35 0;
#X connect 26 0 40 0;
#X connect 26 0 45 0;
#X connect 27 0 29 0;
#X connect 28 0 27 0;
#X connect 29 0 0 0;
#X connect 30 0 27 2;
#X connect 31 0 27 0;
#X connect 32 0 34 0;
#X connect 33 0 32 0;
#X connect 34 0 0 0;
#X connect 35 0 32 2;
#X connect 36 0 32 0;
#X connect 37 0 39 0;
#X connect 38 0 37 0;
#X connect 39 0 0 0;
#X connect 40 0 37 2;
#X connect 41 0 37 0;
#X connect 42 0 44 0;
#X connect 43 0 42 0;
#X connect 44 0 0 0;
#X connect 45 0 42 2;
#X connect 46 0 42 0;
#X connect 47 0 5 0;
#X connect 47 0 11 0;
#X connect 47 0 18 0;
#X connect 47 0 24 0;
#X connect 47 0 31 0;
#X connect 47 0 36 0;
#X connect 47 0 41 0;
#X connect 47 0 46 0;
#X connect 48 0 27 1;
#X connect 49 0 32 1;
#X connect 50 0 37 1;
#X connect 51 0 42 1;
#X connect 52 0 2 0;
#X connect 53 0 28 0;
#X connect 54 0 33 0;
#X connect 55 0 38 0;
#X connect 56 0 43 0;
#X connect 57 0 21 0;
#X connect 58 0 15 0;
#X connect 59 0 8 0;
#X connect 60 0 47 0;
#X connect 61 0 26 0;
#X connect 62 0 13 0;
#X connect 64 0 7 1;
#X connect 64 0 1 1;
#X connect 64 0 14 1;
#X connect 64 0 20 1;
#X connect 64 0 27 1;
#X connect 64 0 32 1;
#X connect 64 0 37 1;
#X connect 64 0 42 1;
#X restore 336 538 pd play8dirs;
#X msg 485 482 140_loops;
#X obj 330 518 bng 15 250 50 0 empty empty empty 17 7 0 10 #fcfcfc
#000000 #000000;
#X obj 362 516 bng 15 250 50 0 empty empty empty 17 7 0 10 #fcfcfc
#000000 #000000;
#X obj 390 518 bng 15 250 50 0 empty empty empty 17 7 0 10 #fcfcfc
#000000 #000000;
#X msg 474 411 fullDrum172;
#X msg 460 382 fullDrumLoop170;
#X msg 431 328 fullDrumLoop174;
#N canvas 0 0 450 300 getSoundFolderPath 0;
#X obj 76 168 pdcontrol;
#X msg 76 140 dir;
#X obj 24 13 inlet;
#X obj 24 194 pack s s;
#X obj 24 98 symbol;
#X obj 35 127 b;
#X msg 24 224 \$2/sounds/\$1;
#X obj 23 251 outlet;
#X connect 0 0 3 1;
#X connect 1 0 0 0;
#X connect 2 0 4 0;
#X connect 3 0 6 0;
#X connect 4 0 3 0;
#X connect 4 0 5 0;
#X connect 5 0 1 0;
#X connect 6 0 7 0;
#X restore 453 527 pd getSoundFolderPath;
#X obj 36 591 bng 15 250 50 0 empty empty empty 17 7 0 10 #fcfcfc #000000
#000000;
#X obj 188 297 unpack 0 0 0;
#X obj 204 16 bng 15 250 50 0 empty empty empty 17 7 0 10 #fcfcfc #000000
#000000;
#X obj 301 25 bng 15 250 50 0 empty empty empty 17 7 0 10 #fcfcfc #000000
#000000;
#X obj 415 26 bng 15 250 50 0 empty empty empty 17 7 0 10 #fcfcfc #000000
#000000;
#X msg 31 140 11;
#X msg 837 261 misc3;
#X msg 842 329 misc;
#X msg 834 392 misc2;
#X obj 884 132 else/display;
#X msg 752 112 fx;
#X obj 883 188 else/display;
#X msg 751 168 fx;
#X obj 970 284 else/display;
#X obj 974 349 else/display;
#X obj 969 413 else/display;
#X obj 972 475 else/display;
#X obj 976 544 else/display;
#X msg 841 522 more;
#X msg 837 453 vox;
#X obj 751 137 randomSequence2;
#X obj 750 193 randomSequence2;
#X obj 837 289 randomSequence2;
#X obj 841 354 randomSequence2;
#X obj 836 418 randomSequence2;
#X obj 839 480 randomSequence2;
#X obj 843 549 randomSequence2;
#X floatatom 465 222 5 0 0 0 - - - 0;
#X floatatom 520 178 5 0 0 0 - - - 0;
#X floatatom 580 137 5 0 0 0 - - - 0;
#X obj 372 254 bng 15 250 50 0 empty empty empty 17 7 0 10 #fcfcfc
#000000 #000000;
#X obj 372 275 s globRandom2;
#X obj 462 246 s globSeqSize2;
#X obj 519 203 s globLikeliness2;
#X obj 579 162 s globRandMax2;
#X obj 722 614 throw~ main;
#X obj 475 142 unpack 0 0 0;
#X msg 80 141 71;
#X msg 188 139 155;
#X obj 475 88 loadbang;
#X msg 475 115 512 99 30;
#X obj 722 249 *~ 0.7;
#X obj 205 38 random 32;
#X obj 302 47 random 40;
#X obj 286 216 + 60;
#X obj 416 48 random 111;
#X msg 550 24 999;
#X msg 516 23 111;
#X msg 482 20 11;
#X obj 837 73 loadbang;
#X msg 195 267 16 78 1111;
#X msg 310 139 172;
#X connect 0 0 7 0;
#X connect 1 0 2 0;
#X connect 1 0 2 1;
#X connect 3 0 7 2;
#X connect 4 0 7 0;
#X connect 5 0 8 0;
#X connect 6 0 8 0;
#X connect 7 0 32 0;
#X connect 8 0 7 1;
#X connect 10 0 8 0;
#X connect 11 0 8 0;
#X connect 12 0 8 0;
#X connect 13 0 18 0;
#X connect 13 1 17 0;
#X connect 13 2 16 0;
#X connect 13 3 15 0;
#X connect 14 0 13 0;
#X connect 15 0 22 0;
#X connect 18 0 76 0;
#X connect 19 0 13 1;
#X connect 20 0 19 0;
#X connect 21 0 20 0;
#X connect 23 0 1 0;
#X connect 24 0 31 0;
#X connect 25 0 30 0;
#X connect 26 0 29 0;
#X connect 27 0 28 0;
#X connect 33 0 19 0;
#X connect 35 0 34 0;
#X connect 36 0 35 1;
#X connect 37 0 81 0;
#X connect 38 0 45 0;
#X connect 39 0 37 0;
#X connect 40 0 37 1;
#X connect 41 0 37 2;
#X connect 42 0 45 0;
#X connect 43 0 45 0;
#X connect 44 0 37 3;
#X connect 45 0 37 3;
#X connect 46 0 35 0;
#X connect 47 0 24 0;
#X connect 47 1 25 0;
#X connect 47 2 26 0;
#X connect 48 0 88 0;
#X connect 49 0 89 0;
#X connect 50 0 91 0;
#X connect 51 0 13 1;
#X connect 52 0 68 0;
#X connect 53 0 69 0;
#X connect 54 0 70 0;
#X connect 56 0 66 0;
#X connect 58 0 67 0;
#X connect 64 0 72 0;
#X connect 65 0 71 0;
#X connect 66 0 87 0;
#X connect 66 1 55 0;
#X connect 67 0 87 0;
#X connect 67 1 57 0;
#X connect 68 1 59 0;
#X connect 69 1 60 0;
#X connect 70 1 61 0;
#X connect 71 1 62 0;
#X connect 72 1 63 0;
#X connect 73 0 78 0;
#X connect 74 0 79 0;
#X connect 75 0 80 0;
#X connect 76 0 77 0;
#X connect 82 0 73 0;
#X connect 82 1 74 0;
#X connect 82 2 75 0;
#X connect 83 0 19 0;
#X connect 84 0 19 0;
#X connect 85 0 86 0;
#X connect 85 0 96 0;
#X connect 86 0 82 0;
#X connect 87 0 81 0;
#X connect 88 0 24 0;
#X connect 89 0 90 0;
#X connect 90 0 25 0;
#X connect 91 0 26 0;
#X connect 92 0 91 1;
#X connect 93 0 91 1;
#X connect 94 0 91 1;
#X connect 95 0 56 0;
#X connect 95 0 58 0;
#X connect 96 0 47 0;
#X connect 97 0 19 0;
