#N canvas 34 141 841 642 12;
#X declare -path monzlib;
#X floatatom 194 1092 5 0 0 0 - - - 0;
#X obj 51 1863 *~ 0.8;
#X obj 46 1891 dac~;
#X obj 237 980 bng 15 250 50 0 empty empty empty 17 7 0 10 #fcfcfc
#000000 #000000;
#X obj 162 1109 bng 15 250 50 0 empty empty empty 17 7 0 10 #fcfcfc
#000000 #000000;
#X msg 370 1005 vox;
#X msg 382 1032 more;
#N canvas 0 0 1438 837 play8dirs 0;
#X obj 90 751 *~ 0.8;
#X obj 164 275 playdir~;
#X floatatom 116 168 5 0 0 0 - - - 0;
#X obj 164 300 *~ 0.8;
#X obj 230 248 bng 15 250 50 0 empty empty empty 17 7 0 10 #fcfcfc
#000000 #000000;
#X obj 163 222 bng 15 250 50 0 empty empty empty 17 7 0 10 #fcfcfc
#000000 #000000;
#X msg 228 169 140_loops;
#X obj 396 280 playdir~;
#X floatatom 348 173 5 0 0 0 - - - 0;
#X obj 396 305 *~ 0.8;
#X obj 462 253 bng 15 250 50 0 empty empty empty 17 7 0 10 #fcfcfc
#000000 #000000;
#X obj 395 227 bng 15 250 50 0 empty empty empty 17 7 0 10 #fcfcfc
#000000 #000000;
#X msg 460 174 140_loops;
#X obj 315 69 bng 15 250 50 0 empty empty empty 17 7 0 10 #fcfcfc #000000
#000000;
#X obj 624 273 playdir~;
#X floatatom 576 166 5 0 0 0 - - - 0;
#X obj 624 298 *~ 0.8;
#X obj 690 246 bng 15 250 50 0 empty empty empty 17 7 0 10 #fcfcfc
#000000 #000000;
#X obj 623 220 bng 15 250 50 0 empty empty empty 17 7 0 10 #fcfcfc
#000000 #000000;
#X msg 688 167 140_loops;
#X obj 824 259 playdir~;
#X floatatom 776 152 5 0 0 0 - - - 0;
#X obj 824 284 *~ 0.8;
#X obj 890 232 bng 15 250 50 0 empty empty empty 17 7 0 10 #fcfcfc
#000000 #000000;
#X obj 823 206 bng 15 250 50 0 empty empty empty 17 7 0 10 #fcfcfc
#000000 #000000;
#X msg 888 153 140_loops;
#X obj 173 63 bng 15 250 50 0 empty empty empty 17 7 0 10 #fcfcfc #000000
#000000;
#X obj 213 616 playdir~;
#X floatatom 165 509 5 0 0 0 - - - 0;
#X obj 213 641 *~ 0.8;
#X obj 279 589 bng 15 250 50 0 empty empty empty 17 7 0 10 #fcfcfc
#000000 #000000;
#X obj 212 563 bng 15 250 50 0 empty empty empty 17 7 0 10 #fcfcfc
#000000 #000000;
#X obj 445 621 playdir~;
#X floatatom 397 514 5 0 0 0 - - - 0;
#X obj 445 646 *~ 0.8;
#X obj 511 594 bng 15 250 50 0 empty empty empty 17 7 0 10 #fcfcfc
#000000 #000000;
#X obj 444 568 bng 15 250 50 0 empty empty empty 17 7 0 10 #fcfcfc
#000000 #000000;
#X obj 673 614 playdir~;
#X floatatom 625 507 5 0 0 0 - - - 0;
#X obj 673 639 *~ 0.8;
#X obj 739 587 bng 15 250 50 0 empty empty empty 17 7 0 10 #fcfcfc
#000000 #000000;
#X obj 672 561 bng 15 250 50 0 empty empty empty 17 7 0 10 #fcfcfc
#000000 #000000;
#X obj 873 600 playdir~;
#X floatatom 825 493 5 0 0 0 - - - 0;
#X obj 873 625 *~ 0.8;
#X obj 939 573 bng 15 250 50 0 empty empty empty 17 7 0 10 #fcfcfc
#000000 #000000;
#X obj 872 547 bng 15 250 50 0 empty empty empty 17 7 0 10 #fcfcfc
#000000 #000000;
#X obj 109 65 bng 15 250 50 0 empty empty empty 17 7 0 10 #fcfcfc #000000
#000000;
#X msg 277 510 140_loops;
#X msg 509 515 140_loops;
#X msg 737 508 140_loops;
#X msg 937 494 140_loops;
#X obj 116 137 random 2000;
#X obj 165 478 random 2000;
#X obj 395 483 random 2000;
#X obj 623 476 random 2000;
#X obj 823 462 random 2000;
#X obj 774 121 random 2000;
#X obj 574 135 random 2000;
#X obj 346 142 random 2000;
#X obj 111 31 inlet;
#X obj 174 31 inlet;
#X obj 319 34 inlet;
#X obj 90 776 outlet~;
#X obj 404 36 inlet;
#X connect 0 0 63 0;
#X connect 1 0 3 0;
#X connect 2 0 1 0;
#X connect 3 0 0 0;
#X connect 4 0 1 2;
#X connect 5 0 1 0;
#X connect 6 0 1 1;
#X connect 7 0 9 0;
#X connect 8 0 7 0;
#X connect 9 0 0 0;
#X connect 10 0 7 2;
#X connect 11 0 7 0;
#X connect 12 0 7 1;
#X connect 13 0 52 0;
#X connect 13 0 53 0;
#X connect 13 0 54 0;
#X connect 13 0 55 0;
#X connect 13 0 56 0;
#X connect 13 0 57 0;
#X connect 13 0 58 0;
#X connect 13 0 59 0;
#X connect 14 0 16 0;
#X connect 15 0 14 0;
#X connect 16 0 0 0;
#X connect 17 0 14 2;
#X connect 18 0 14 0;
#X connect 19 0 14 1;
#X connect 20 0 22 0;
#X connect 21 0 20 0;
#X connect 22 0 0 0;
#X connect 23 0 20 2;
#X connect 24 0 20 0;
#X connect 25 0 20 1;
#X connect 26 0 4 0;
#X connect 26 0 10 0;
#X connect 26 0 17 0;
#X connect 26 0 23 0;
#X connect 26 0 30 0;
#X connect 26 0 35 0;
#X connect 26 0 40 0;
#X connect 26 0 45 0;
#X connect 27 0 29 0;
#X connect 28 0 27 0;
#X connect 29 0 0 0;
#X connect 30 0 27 2;
#X connect 31 0 27 0;
#X connect 32 0 34 0;
#X connect 33 0 32 0;
#X connect 34 0 0 0;
#X connect 35 0 32 2;
#X connect 36 0 32 0;
#X connect 37 0 39 0;
#X connect 38 0 37 0;
#X connect 39 0 0 0;
#X connect 40 0 37 2;
#X connect 41 0 37 0;
#X connect 42 0 44 0;
#X connect 43 0 42 0;
#X connect 44 0 0 0;
#X connect 45 0 42 2;
#X connect 46 0 42 0;
#X connect 47 0 5 0;
#X connect 47 0 11 0;
#X connect 47 0 18 0;
#X connect 47 0 24 0;
#X connect 47 0 31 0;
#X connect 47 0 36 0;
#X connect 47 0 41 0;
#X connect 47 0 46 0;
#X connect 48 0 27 1;
#X connect 49 0 32 1;
#X connect 50 0 37 1;
#X connect 51 0 42 1;
#X connect 52 0 2 0;
#X connect 53 0 28 0;
#X connect 54 0 33 0;
#X connect 55 0 38 0;
#X connect 56 0 43 0;
#X connect 57 0 21 0;
#X connect 58 0 15 0;
#X connect 59 0 8 0;
#X connect 60 0 47 0;
#X connect 61 0 26 0;
#X connect 62 0 13 0;
#X connect 64 0 7 1;
#X connect 64 0 1 1;
#X connect 64 0 14 1;
#X connect 64 0 20 1;
#X connect 64 0 27 1;
#X connect 64 0 32 1;
#X connect 64 0 37 1;
#X connect 64 0 42 1;
#X restore 68 563 pd play8dirs;
#X msg 217 507 140_loops;
#X obj 62 543 bng 15 250 50 0 empty empty empty 17 7 0 10 #fcfcfc #000000
#000000;
#X obj 94 541 bng 15 250 50 0 empty empty empty 17 7 0 10 #fcfcfc #000000
#000000;
#X obj 122 543 bng 15 250 50 0 empty empty empty 17 7 0 10 #fcfcfc
#000000 #000000;
#X msg 206 436 fullDrum172;
#X msg 192 407 fullDrumLoop170;
#X msg 163 353 fullDrumLoop174;
#X obj 198 1127 playdir~;
#N canvas 0 0 450 300 getSoundFolderPath 0;
#X obj 76 168 pdcontrol;
#X msg 76 140 dir;
#X obj 24 13 inlet;
#X obj 24 194 pack s s;
#X obj 24 98 symbol;
#X obj 35 127 b;
#X msg 24 224 \$2/sounds/\$1;
#X obj 23 251 outlet;
#X connect 0 0 3 1;
#X connect 1 0 0 0;
#X connect 2 0 4 0;
#X connect 3 0 6 0;
#X connect 4 0 3 0;
#X connect 4 0 5 0;
#X connect 5 0 1 0;
#X connect 6 0 7 0;
#X restore 244 1077 pd getSoundFolderPath;
#X obj 26 20 declare -path monzlib;
#N canvas 0 0 450 300 getSoundFolderPath 0;
#X obj 76 168 pdcontrol;
#X msg 76 140 dir;
#X obj 24 13 inlet;
#X obj 24 194 pack s s;
#X obj 24 98 symbol;
#X obj 35 127 b;
#X msg 24 224 \$2/sounds/\$1;
#X obj 23 251 outlet;
#X connect 0 0 3 1;
#X connect 1 0 0 0;
#X connect 2 0 4 0;
#X connect 3 0 6 0;
#X connect 4 0 3 0;
#X connect 4 0 5 0;
#X connect 5 0 1 0;
#X connect 6 0 7 0;
#X restore 185 552 pd getSoundFolderPath;
#X msg 303 917 misc3;
#X msg 323 947 misc;
#X msg 346 977 misc2;
#N canvas 0 0 719 837 transport 0;
#X obj 282 328 route stop start bar dur;
#X msg 173 195 stop;
#X obj 203 300 else/pattern;
#X msg 384 216 tempo 140;
#X obj 321 356 bng 15 250 50 0 empty empty empty 17 7 0 10 #fcfcfc
#000000 #000000;
#X obj 85 230 tgl 15 0 empty empty empty 17 7 0 10 #fcfcfc #000000
#000000 0 1;
#X msg 196 32 1/4 1/4 1/4 1/4;
#X obj 202 325 bng 15 250 50 0 empty empty empty 17 7 0 10 #fcfcfc
#000000 #000000;
#X msg 224 67 1/4 1/4 1/4 1/4 1/4 1/4 1/4 1/4;
#X msg 375 283 swing 0;
#X msg 373 150 tempo 174;
#X msg 242 105 1/4 1/4 1/4 1/4 1/4 1/4 1/4 1/4 1/4 1/4 1/4 1/4 1/4
1/4 1/4 1/4, f 64;
#X msg 379 182 tempo 170;
#X floatatom 405 353 5 0 0 0 - - - 0;
#X obj 405 377 / 2;
#X floatatom 405 407 5 0 0 0 - - - 0;
#X obj 375 431 metro;
#X obj 373 456 bng 15 250 50 0 empty empty empty 17 7 0 10 #fcfcfc
#000000 #000000;
#X obj 446 378 / 4;
#X floatatom 447 406 5 0 0 0 - - - 0;
#X obj 419 431 metro;
#X obj 417 456 bng 15 250 50 0 empty empty empty 17 7 0 10 #fcfcfc
#000000 #000000;
#X msg 438 246 tempo 14;
#X msg 566 210 tempo \$1;
#X floatatom 568 183 5 0 0 0 - - - 0;
#X obj 398 22 loadbang;
#X obj 65 19 inlet;
#X obj 234 555 outlet;
#X obj 327 557 outlet;
#X obj 382 556 outlet;
#X obj 534 22 inlet;
#X obj 281 557 outlet;
#X connect 0 1 4 0;
#X connect 0 3 13 0;
#X connect 1 0 2 0;
#X connect 2 0 7 0;
#X connect 2 1 0 0;
#X connect 3 0 2 0;
#X connect 4 0 27 0;
#X connect 5 0 2 0;
#X connect 5 0 16 0;
#X connect 5 0 20 0;
#X connect 6 0 2 1;
#X connect 7 0 31 0;
#X connect 8 0 2 1;
#X connect 9 0 2 0;
#X connect 10 0 2 0;
#X connect 11 0 2 1;
#X connect 12 0 2 0;
#X connect 13 0 14 0;
#X connect 13 0 18 0;
#X connect 14 0 15 0;
#X connect 15 0 16 1;
#X connect 16 0 17 0;
#X connect 17 0 28 0;
#X connect 18 0 19 0;
#X connect 19 0 20 1;
#X connect 20 0 21 0;
#X connect 21 0 29 0;
#X connect 22 0 2 0;
#X connect 23 0 2 0;
#X connect 24 0 23 0;
#X connect 25 0 11 0;
#X connect 26 0 5 0;
#X connect 30 0 24 0;
#X restore 38 119 pd transport;
#X obj 38 98 tgl 15 0 empty empty empty 17 7 0 10 #fcfcfc #000000 #000000
0 1;
#X obj 119 142 bng 15 250 50 0 empty empty empty 17 7 0 10 #fcfcfc
#000000 #000000;
#X obj 92 142 bng 15 250 50 0 empty empty empty 17 7 0 10 #fcfcfc #000000
#000000;
#X obj 65 142 bng 15 250 50 0 empty empty empty 17 7 0 10 #fcfcfc #000000
#000000;
#X obj 37 142 bng 15 250 50 0 empty empty empty 17 7 0 10 #fcfcfc #000000
#000000;
#X floatatom 120 95 5 0 0 0 - - - 0;
#X msg 120 70 140;
#X obj 119 45 loadbang;
#X obj 120 163 s pulse;
#X obj 64 1773 catch~ main;
#X obj 299 456 throw~ main;
#X msg 401 204 hihat;
#X floatatom 178 214 5 0 0 0 - - - 0;
#X floatatom 157 288 5 0 0 0 - - - 0;
#X floatatom 29 268 5 0 0 0 - - - 0;
#X obj 66 208 bng 15 250 50 0 empty empty empty 17 7 0 10 #fcfcfc #000000
#000000;
#X obj 66 229 s globRandom;
#X obj 28 293 s globRandMax;
#X obj 156 313 s globLikeliness;
#X obj 175 238 s globSeqSize;
#X obj 400 229 randomSequence;
#X obj 375 172 randomSequence;
#X msg 376 147 kicks;
#X obj 502 228 else/display;
#X obj 479 170 else/display;
#X obj 404 289 randomSequence;
#X obj 506 288 else/display;
#X msg 405 264 snares;
#X obj 408 355 randomSequence;
#X obj 510 354 else/display;
#X msg 409 330 rimshots;
#X obj 408 418 randomSequence;
#X obj 510 417 else/display;
#X msg 409 393 perc;
#X msg 406 573 misc3;
#X msg 411 641 misc;
#X msg 403 704 misc2;
#X obj 407 482 randomSequence;
#X obj 509 481 else/display;
#X msg 408 457 fx;
#X obj 98 364 - 1;
#X obj 57 363 i 99;
#X floatatom 61 392 5 0 0 0 - - - 0;
#X obj 406 538 randomSequence;
#X obj 508 537 else/display;
#X msg 407 513 fx;
#X obj 406 601 randomSequence;
#X obj 508 600 else/display;
#X obj 410 666 randomSequence;
#X obj 512 665 else/display;
#X obj 405 730 randomSequence;
#X obj 507 729 else/display;
#X obj 408 792 randomSequence;
#X obj 510 791 else/display;
#X obj 412 861 randomSequence;
#X obj 514 860 else/display;
#X msg 410 834 more;
#X msg 406 765 vox;
#X obj 541 325 b;
#X obj 510 144 bng 15 250 50 0 empty empty empty 17 7 0 10 #fcfcfc
#000000 #000000;
#X obj 194 1155 throw~ main;
#X obj 56 469 spigot 1;
#X obj 109 437 tgl 15 0 empty empty empty 17 7 0 10 #fcfcfc #000000
#000000 0 1;
#X floatatom 249 143 5 0 0 0 - - - 0;
#X obj 286 115 + 1;
#X obj 245 114 i 0;
#X msg 192 72 170;
#X obj 394 108 randomSequence;
#X obj 498 106 else/display;
#X msg 395 83 cymbals;
#X connect 0 0 15 0;
#X connect 1 0 2 0;
#X connect 1 0 2 1;
#X connect 3 0 15 2;
#X connect 4 0 15 0;
#X connect 5 0 16 0;
#X connect 6 0 16 0;
#X connect 7 0 33 0;
#X connect 8 0 18 0;
#X connect 9 0 7 0;
#X connect 10 0 7 1;
#X connect 11 0 7 2;
#X connect 12 0 18 0;
#X connect 13 0 18 0;
#X connect 14 0 7 3;
#X connect 15 0 83 0;
#X connect 16 0 15 1;
#X connect 18 0 7 3;
#X connect 19 0 16 0;
#X connect 20 0 16 0;
#X connect 21 0 16 0;
#X connect 22 0 27 0;
#X connect 22 1 26 0;
#X connect 22 2 25 0;
#X connect 22 3 24 0;
#X connect 23 0 22 0;
#X connect 24 0 31 0;
#X connect 27 0 38 0;
#X connect 27 0 64 0;
#X connect 27 0 84 0;
#X connect 27 0 88 0;
#X connect 28 0 22 1;
#X connect 29 0 28 0;
#X connect 29 0 8 0;
#X connect 30 0 29 0;
#X connect 32 0 1 0;
#X connect 34 0 43 0;
#X connect 35 0 42 0;
#X connect 36 0 41 0;
#X connect 36 0 64 0;
#X connect 37 0 40 0;
#X connect 38 0 39 0;
#X connect 43 0 33 0;
#X connect 43 1 46 0;
#X connect 44 0 33 0;
#X connect 44 1 47 0;
#X connect 45 0 44 0;
#X connect 48 0 33 0;
#X connect 48 1 49 0;
#X connect 50 0 48 0;
#X connect 51 0 33 0;
#X connect 51 1 52 0;
#X connect 53 0 51 0;
#X connect 54 1 55 0;
#X connect 56 0 54 0;
#X connect 57 0 69 0;
#X connect 58 0 71 0;
#X connect 59 0 73 0;
#X connect 60 1 61 0;
#X connect 62 0 60 0;
#X connect 63 0 64 1;
#X connect 64 0 63 0;
#X connect 64 0 65 0;
#X connect 65 0 36 0;
#X connect 66 1 67 0;
#X connect 68 0 66 0;
#X connect 69 1 70 0;
#X connect 71 1 72 0;
#X connect 73 1 74 0;
#X connect 75 1 76 0;
#X connect 77 1 78 0;
#X connect 79 0 77 0;
#X connect 80 0 75 0;
#X connect 81 0 45 0;
#X connect 81 0 34 0;
#X connect 81 0 50 0;
#X connect 81 0 53 0;
#X connect 81 0 56 0;
#X connect 81 0 62 0;
#X connect 81 0 68 0;
#X connect 81 0 57 0;
#X connect 81 0 58 0;
#X connect 81 0 59 0;
#X connect 81 0 80 0;
#X connect 81 0 79 0;
#X connect 81 0 92 0;
#X connect 82 0 81 0;
#X connect 84 0 9 0;
#X connect 85 0 84 1;
#X connect 86 0 37 0;
#X connect 87 0 88 1;
#X connect 88 0 86 0;
#X connect 88 0 87 0;
#X connect 89 0 28 0;
#X connect 89 0 13 0;
#X connect 90 0 33 0;
#X connect 90 1 91 0;
#X connect 92 0 90 0;
