#N canvas 0 0 707 487 12;
#X obj 47 231 sequencer;
#X obj 47 205 r pulse;
#X obj 47 405 playdir~;
#X floatatom 47 350 5 0 0 0 - - - 0;
#N canvas 0 0 450 300 getSoundFolderPath 0;
#X obj 76 168 pdcontrol;
#X msg 76 140 dir;
#X obj 24 13 inlet;
#X obj 24 194 pack s s;
#X obj 24 98 symbol;
#X obj 35 127 b;
#X msg 24 224 \$2/sounds/\$1;
#X obj 23 251 outlet;
#X connect 0 0 3 1;
#X connect 1 0 0 0;
#X connect 2 0 4 0;
#X connect 3 0 6 0;
#X connect 4 0 3 0;
#X connect 4 0 5 0;
#X connect 5 0 1 0;
#X connect 6 0 7 0;
#X restore 73 292 pd getSoundFolderPath;
#X obj 219 169 randomseq, f 24;
#X floatatom 384 146 5 0 0 0 - - - 0;
#X floatatom 329 146 5 0 0 0 - - - 0;
#X floatatom 274 145 5 0 0 0 - - - 0;
#X obj 219 143 bng 15 250 50 0 empty empty empty 17 7 0 10 #fcfcfc
#000000 #000000;
#X obj 217 203 else/display;
#X msg 77 61 hihat;
#X obj 46 25 inlet;
#X obj 46 431 outlet~;
#X obj 269 356 outlet;
#X obj 220 22 r globRandom2;
#X obj 274 56 r globRandMax2;
#X obj 329 84 r globLikeliness2;
#X obj 383 119 r globSeqSize2;
#X connect 0 0 3 0;
#X connect 1 0 0 0;
#X connect 2 0 13 0;
#X connect 3 0 2 0;
#X connect 4 0 2 1;
#X connect 5 0 10 0;
#X connect 6 0 5 3;
#X connect 7 0 5 2;
#X connect 8 0 5 1;
#X connect 9 0 5 0;
#X connect 10 0 0 1;
#X connect 10 0 14 0;
#X connect 11 0 4 0;
#X connect 12 0 4 0;
#X connect 15 0 9 0;
#X connect 16 0 8 0;
#X connect 17 0 7 0;
#X connect 18 0 6 0;
